<?xml version="1.0" standalone="no"?>
<!DOCTYPE svg PUBLIC "-//W3C//DTD SVG 20010904//EN"
 "http://www.w3.org/TR/2001/REC-SVG-20010904/DTD/svg10.dtd">
<svg version="1.0" xmlns="http://www.w3.org/2000/svg"
 width="50.000000pt" height="59.000000pt" viewBox="0 0 50.000000 59.000000"
 preserveAspectRatio="xMidYMid meet">
<metadata>
Created by potrace 1.16, written by Peter Selinger 2001-2019
</metadata>
<g transform="translate(0.000000,59.000000) scale(0.004883,-0.006224)"
fill="#000000" stroke="none">
<path d="M5102 9417 c-7 -7 -68 -77 -135 -157 -67 -79 -203 -229 -302 -333
-262 -275 -349 -372 -406 -454 -183 -266 -171 -492 38 -694 85 -83 158 -138
327 -251 83 -56 171 -117 195 -137 100 -81 178 -235 201 -396 13 -90 13 -495
0 -515 -7 -10 -10 10 -10 65 0 117 -24 257 -54 318 -35 72 -104 135 -299 276
-307 221 -423 334 -473 462 -15 38 -30 66 -34 64 -15 -9 -18 -251 -10 -840 7
-562 10 -617 29 -705 26 -120 68 -205 139 -281 67 -72 128 -117 327 -235 233
-139 337 -253 365 -403 5 -29 10 -119 10 -200 l0 -146 -35 60 c-56 100 -145
186 -319 312 -188 136 -306 233 -378 312 -47 51 -69 90 -124 220 l-18 44 -8
-36 c-4 -20 -6 -364 -4 -764 3 -701 4 -732 24 -829 66 -310 198 -559 368 -695
87 -68 130 -92 229 -126 256 -87 529 -73 760 41 288 142 472 401 537 756 17
93 20 184 29 810 6 388 8 737 4 776 l-6 71 -54 -103 c-96 -186 -144 -236 -385
-399 -376 -256 -392 -279 -420 -604 -23 -271 -45 -143 -37 212 8 387 33 434
332 636 208 141 290 207 396 319 97 101 131 159 160 269 20 75 21 107 24 738
2 363 1 703 -2 755 l-6 95 -22 -72 c-12 -39 -34 -91 -48 -115 -66 -111 -209
-235 -417 -363 -205 -126 -296 -212 -334 -315 -9 -25 -25 -125 -35 -222 -9
-98 -20 -181 -24 -184 -13 -13 -27 78 -27 179 0 117 23 372 41 452 14 61 51
137 92 189 17 21 94 91 171 156 326 271 506 461 558 590 17 43 22 76 23 150 0
86 -3 101 -32 162 -44 94 -135 209 -238 302 -121 110 -367 375 -468 504 -46
59 -110 149 -141 200 -32 50 -58 92 -59 92 -1 -1 -8 -6 -15 -13z m-89 -5151
c21 -8 47 -22 58 -32 19 -17 21 -17 60 5 60 34 135 37 269 11 63 -12 138 -23
167 -24 l51 -1 79 -145 80 -145 -26 -6 -26 -7 28 -1 c18 -1 27 -6 27 -17 0
-14 -10 -15 -72 -9 -40 3 -120 14 -178 22 -58 9 -148 17 -200 17 -81 1 -101
-2 -139 -22 -24 -13 -46 -20 -49 -17 -10 10 16 27 70 47 45 16 47 18 17 14
-19 -2 -56 -14 -80 -25 l-45 -22 -60 28 c-82 37 -186 41 -372 14 -175 -26
-287 -28 -278 -6 3 8 52 73 108 144 l103 130 45 1 c25 0 95 14 155 30 124 33
153 35 208 16z m529 -366 c73 -11 152 -20 176 -20 23 0 42 -4 42 -10 0 -14
-74 -12 -195 6 -58 8 -111 14 -117 12 -17 -6 194 -38 251 -38 70 0 65 -20 -6
-22 l-58 -2 58 -3 c32 -2 57 -9 57 -15 0 -8 -27 -9 -87 -5 -88 5 -82 3 45 -18
17 -3 32 -10 32 -15 0 -6 -104 -10 -267 -10 l-268 1 27 24 c36 31 120 48 210
41 58 -4 65 -3 33 4 -22 5 -76 9 -121 9 -70 1 -86 -2 -117 -24 -38 -25 -44
-24 -43 9 1 34 62 60 156 67 l85 7 -97 -2 c-83 -1 -101 -4 -127 -23 -29 -22
-54 -17 -28 6 55 45 156 51 359 21z m-394 -40 c17 -25 22 -45 20 -75 l-3 -40
-63 -3 c-59 -3 -63 -2 -72 24 -13 34 -6 57 32 100 37 42 55 40 86 -6z m-198
-67 l35 -23 -181 0 c-99 0 -222 -3 -272 -6 -135 -10 -115 9 36 33 174 29 333
27 382 -4z m-106 -117 c65 -27 56 -79 -23 -147 l-51 -44 57 -5 c32 -3 58 -10
61 -17 3 -10 -18 -13 -82 -13 -61 0 -86 4 -86 12 0 7 29 39 65 73 66 61 79 91
51 115 -22 17 -60 8 -71 -17 -5 -13 -15 -23 -22 -23 -28 0 -4 56 30 70 30 12
33 12 71 -4z m207 -15 c26 -26 29 -36 29 -90 0 -74 -14 -106 -52 -122 -35 -15
-69 -2 -94 36 -12 19 -15 41 -12 91 4 58 8 70 32 90 36 32 61 30 97 -5z m200
3 c21 -22 24 -35 24 -99 0 -64 -3 -77 -24 -99 -30 -32 -82 -35 -110 -7 -41 41
-41 164 0 207 31 33 78 32 110 -2z m187 10 c23 -16 32 -77 12 -89 -6 -4 -1
-18 12 -35 18 -25 19 -33 9 -58 -21 -51 -98 -69 -142 -33 -28 22 -32 87 -7
105 14 10 14 14 2 31 -21 28 -17 51 12 74 32 25 71 27 102 5z"/>
<path d="M4970 3645 c-19 -23 -24 -115 -8 -145 9 -16 22 -25 38 -25 64 0 68
174 4 183 -11 2 -27 -4 -34 -13z"/>
<path d="M6523 7623 c-13 -46 -6 -1254 7 -1320 17 -84 80 -206 155 -298 218
-270 381 -575 455 -851 59 -220 85 -524 61 -720 -91 -737 -630 -1434 -1321
-1708 -239 -94 -466 -131 -770 -123 -300 8 -511 50 -780 158 -651 260 -1102
800 -1234 1475 -91 469 -26 944 189 1362 72 142 145 250 269 398 166 198 198
279 200 499 0 72 0 358 -1 638 -3 579 7 529 -97 483 -160 -71 -457 -304 -758
-595 -572 -553 -909 -1212 -993 -1941 -33 -294 -15 -711 46 -1020 29 -147 93
-400 130 -512 43 -132 154 -352 247 -495 591 -898 1404 -1459 2311 -1593 375
-55 764 -43 1121 37 497 110 927 313 1350 639 143 110 457 423 569 567 243
314 415 634 531 987 261 796 197 1640 -181 2407 -102 205 -262 449 -418 637
-216 260 -597 608 -886 808 -70 48 -174 108 -189 108 -3 0 -9 -12 -13 -27z
m-3751 -3885 c46 -37 15 -102 -58 -123 -34 -10 -39 -14 -37 -40 1 -15 6 -32
11 -37 14 -14 92 21 92 42 0 9 8 24 18 34 18 16 21 11 78 -111 66 -144 134
-261 222 -378 77 -105 88 -114 107 -89 33 43 -3 102 -46 76 -31 -20 -49 1 -24
28 24 26 78 27 105 0 27 -27 25 -70 -5 -114 -16 -24 -22 -42 -17 -52 4 -8 62
-69 129 -137 105 -106 119 -125 112 -145 -10 -27 -17 -28 -45 -1 l-23 22 -48
-41 c-26 -22 -72 -65 -102 -96 -30 -30 -58 -53 -63 -50 -20 12 -6 51 28 78
l36 29 -29 12 c-67 28 -97 120 -53 160 17 15 23 16 50 5 27 -11 34 -11 47 3
15 15 12 20 -33 69 -27 29 -52 52 -56 51 -4 -2 -57 -39 -117 -83 -109 -78
-111 -79 -111 -51 0 24 14 38 100 100 99 72 100 72 84 97 -9 13 -20 24 -25 24
-4 0 -61 -34 -125 -76 -64 -41 -118 -74 -120 -72 -2 2 0 16 4 30 5 18 28 40
70 67 34 22 62 43 62 46 0 15 -47 76 -63 81 -25 8 -74 -39 -100 -96 -18 -41
-21 -43 -29 -24 -20 44 72 174 124 174 20 0 71 -45 99 -90 14 -21 19 -23 32
-12 14 12 7 26 -56 122 l-71 108 -49 -24 c-29 -15 -61 -24 -80 -22 -29 3 -31
1 -52 -61 -21 -63 -37 -83 -50 -62 -6 11 32 127 60 181 18 35 54 41 62 10 3
-11 7 -20 9 -20 11 0 74 35 74 41 0 6 -34 71 -46 87 -1 2 -59 -19 -129 -48
-70 -28 -130 -50 -135 -48 -4 2 -4 13 0 24 6 16 41 34 128 69 l120 48 -16 33
c-8 19 -19 34 -24 34 -4 0 -65 -23 -134 -50 -70 -28 -128 -49 -130 -47 -2 1
-1 12 2 24 4 13 22 27 50 38 54 21 58 27 44 69 -9 28 -14 32 -35 28 -33 -6
-33 22 -1 63 22 26 27 29 45 18 28 -18 31 -17 31 11 0 55 63 94 102 64z m4738
-72 c0 -2 -7 -20 -16 -41 -17 -42 -14 -48 38 -64 21 -7 48 -25 62 -41 l24 -29
48 18 c89 33 94 34 94 14 0 -15 -21 -26 -100 -52 -58 -18 -109 -30 -120 -26
-20 6 -29 45 -10 45 24 0 7 19 -30 34 -48 19 -50 19 -50 4 0 -6 -10 -31 -21
-55 -12 -24 -20 -46 -18 -47 2 -2 55 -27 117 -55 155 -70 150 -66 123 -81 -18
-9 -30 -8 -62 4 -51 21 -49 21 -49 -15 0 -44 -17 -69 -57 -85 -67 -29 -123 5
-123 74 0 32 36 82 60 82 18 0 11 18 -11 25 -26 9 -38 -3 -75 -75 -15 -30 -37
-67 -47 -82 -18 -28 -18 -28 3 -28 49 0 100 -60 100 -120 l0 -30 60 0 c47 0
60 -3 60 -15 0 -12 -14 -15 -64 -15 -44 0 -67 -5 -76 -15 -7 -8 -23 -15 -35
-15 -32 0 -51 25 -35 45 7 8 21 15 31 15 14 0 19 7 19 25 0 29 -5 30 -40 10
-29 -17 -86 -20 -95 -5 -3 6 -10 10 -15 10 -9 0 -85 -99 -79 -104 2 -2 55 -38
117 -81 81 -55 110 -80 100 -86 -23 -15 -42 -10 -95 27 l-53 36 -20 -23 c-24
-29 -24 -33 -5 -49 23 -19 8 -30 -41 -30 -62 0 -66 19 -14 77 l42 48 -29 22
c-15 13 -31 23 -34 23 -4 0 -28 -26 -55 -57 -27 -32 -55 -63 -62 -69 -11 -8 9
-31 94 -110 98 -91 105 -99 81 -102 -17 -2 -39 6 -62 24 -29 22 -35 23 -35 9
0 -9 -13 -30 -29 -46 -37 -36 -94 -40 -135 -8 -53 41 -22 131 50 145 l36 7
-21 20 -20 20 -40 -34 c-22 -19 -67 -56 -100 -84 -33 -27 -60 -53 -60 -57 -1
-4 38 -50 85 -103 73 -80 89 -93 104 -85 33 18 78 12 94 -12 22 -31 20 -52 -9
-86 -32 -39 -98 -55 -182 -46 -49 5 -61 9 -53 19 6 8 34 12 74 12 34 0 77 5
94 12 34 14 51 47 32 65 -9 8 -16 6 -30 -11 -10 -13 -29 -23 -44 -23 -24 0
-25 2 -16 20 9 16 8 20 -6 20 -9 0 -33 18 -51 40 l-35 40 -29 -21 c-22 -15
-29 -28 -27 -47 3 -25 0 -27 -34 -26 -47 2 -71 19 -58 44 13 24 3 30 -29 19
-53 -19 -108 22 -91 66 23 60 85 57 140 -7 l36 -41 29 25 28 25 -29 36 c-30
39 -39 43 -49 27 -6 -10 -57 9 -53 20 2 4 39 36 83 71 44 35 141 124 215 199
l135 135 -45 3 c-36 3 -48 -1 -61 -17 -17 -21 -63 -29 -73 -12 -22 34 40 61
141 61 l62 0 78 107 c87 120 214 342 264 463 30 73 35 80 61 80 15 0 28 -2 28
-4z m-3659 -997 c13 -25 6 -97 -16 -158 -16 -47 -19 -44 85 -96 129 -65 230
-105 230 -92 0 25 -40 77 -60 77 -16 0 -20 7 -20 30 0 25 4 30 24 30 30 0 51
-31 72 -109 15 -54 21 -62 48 -70 17 -5 39 -12 49 -16 13 -5 17 -2 17 14 0 52
70 77 129 46 34 -17 81 -70 81 -91 0 -21 -10 -17 -32 11 -48 61 -148 74 -148
19 0 -34 365 -120 593 -140 71 -6 77 -5 77 13 0 56 -72 87 -90 38 -13 -34 -40
-33 -40 2 0 31 35 73 61 73 50 0 99 -52 99 -104 0 -22 4 -26 28 -26 21 0 32
-7 40 -25 17 -37 16 -38 -27 -32 l-39 5 -7 -139 c-4 -76 -10 -139 -13 -139 -3
0 -13 7 -23 16 -15 13 -16 30 -12 138 l6 123 -74 5 c-80 6 -89 2 -89 -44 0
-26 2 -27 24 -17 50 23 79 1 100 -77 6 -21 -29 -84 -51 -91 -22 -8 -25 36 -4
66 25 35 26 45 6 61 -12 10 -20 9 -42 -6 -41 -26 -51 -43 -58 -101 -3 -29 -10
-53 -14 -53 -19 0 -33 32 -29 65 4 35 4 35 -36 35 -79 0 -116 81 -61 135 28
29 34 30 82 10 45 -19 43 -19 43 8 0 22 -7 25 -96 41 -53 9 -97 16 -99 14 -1
-2 -17 -60 -35 -130 -18 -71 -37 -128 -41 -128 -5 0 -13 8 -18 18 -7 13 -2 51
19 132 22 86 26 116 17 122 -22 14 -32 2 -52 -63 -32 -104 -43 -111 -75 -49
-23 44 -18 65 11 57 15 -4 21 3 30 35 5 22 9 41 7 42 -2 0 -31 11 -66 23 l-63
22 -8 -22 c-4 -12 -25 -70 -47 -129 -21 -60 -42 -108 -46 -108 -4 0 -12 8 -17
19 -8 14 -1 44 29 127 22 60 40 112 40 115 0 6 -46 29 -58 29 -4 0 -32 -56
-62 -125 -30 -69 -57 -125 -60 -125 -3 0 -11 9 -17 20 -11 16 -5 36 38 132 48
105 50 113 33 125 -10 7 -21 13 -26 13 -4 0 -35 -55 -69 -122 -56 -112 -62
-121 -75 -103 -8 10 -14 22 -14 27 0 4 -11 8 -25 8 -86 0 -152 105 -91 145 16
11 22 22 19 39 -6 32 13 66 38 66 11 0 33 -7 48 -15 24 -12 31 -12 40 -1 8 10
-7 21 -71 52 -45 21 -85 40 -89 42 -4 2 -42 -46 -84 -105 -43 -59 -80 -110
-82 -113 -5 -6 -23 21 -23 35 0 6 32 54 70 109 39 54 70 102 70 105 0 4 -13
14 -28 23 l-29 17 -79 -114 c-43 -63 -82 -114 -85 -115 -4 0 -9 10 -13 22 -3
15 3 36 19 59 l24 36 -72 9 c-56 7 -73 13 -75 27 -3 14 4 17 37 17 40 0 41 1
41 33 0 22 11 49 31 77 31 43 32 44 12 57 -14 10 -19 21 -15 39 2 14 10 23 17
21 6 -3 61 -37 120 -77 72 -47 111 -67 114 -59 2 7 -10 25 -28 39 -47 39 -39
96 10 70 11 -7 28 -28 37 -48 l17 -37 3 35 c3 25 -2 39 -15 50 -15 12 -17 20
-9 43 12 33 41 36 57 6z m2564 -259 c3 -5 -8 -16 -25 -25 -16 -8 -30 -17 -30
-19 0 -3 27 -51 61 -108 88 -149 84 -138 54 -138 -19 0 -32 11 -55 48 -16 26
-31 51 -33 56 -2 6 -17 4 -35 -3 -26 -11 -31 -17 -26 -37 7 -29 -12 -32 -56
-9 -45 23 -37 43 30 73 l59 27 -21 33 c-15 25 -25 31 -40 26 -28 -8 -168 -75
-168 -80 0 -2 25 -58 57 -124 31 -66 54 -122 52 -125 -3 -2 -14 -2 -26 1 -15
4 -36 38 -74 119 l-54 114 -32 -14 -32 -14 54 -130 c30 -72 49 -131 44 -131
-25 0 -48 22 -63 60 -15 38 -18 40 -33 25 -41 -41 -56 -45 -182 -42 -157 3
-167 -5 -76 -66 52 -35 63 -46 52 -55 -10 -9 -32 1 -93 42 -43 29 -85 60 -93
69 -19 23 -7 47 24 47 28 0 29 1 15 51 -10 36 -11 37 -48 28 -20 -5 -50 -9
-67 -9 -59 -1 -60 -5 -33 -149 13 -72 21 -131 16 -131 -27 0 -46 23 -52 64
l-7 44 -57 4 c-88 6 -93 -7 -25 -68 48 -43 55 -53 41 -59 -13 -5 -37 11 -89
56 -39 35 -75 72 -81 82 -14 27 7 49 40 40 21 -5 24 -3 19 11 -4 10 -7 31 -7
48 0 30 0 30 -44 24 -39 -6 -46 -4 -60 16 -21 30 -7 38 66 38 66 0 281 31 423
61 167 35 179 35 204 2 27 -33 24 -77 -8 -122 -23 -32 -19 -41 17 -41 15 0 39
15 63 39 l39 39 -21 50 c-16 37 -25 49 -36 45 -9 -4 -22 2 -29 12 -20 26 -18
32 14 40 39 10 318 131 377 164 49 27 74 27 90 1z"/>
<path d="M97 3982 c-62 -42 -62 -33 13 -328 125 -493 213 -689 381 -850 77
-73 119 -96 219 -118 278 -62 307 -82 394 -254 61 -122 272 -411 465 -637 698
-820 1603 -1387 2596 -1630 381 -93 664 -127 1040 -128 586 0 1099 99 1640
315 759 305 1450 844 1975 1543 139 185 272 392 351 546 78 149 124 185 294
229 233 60 353 152 483 367 120 200 261 651 262 836 0 90 -10 117 -46 117 -35
0 -75 -22 -179 -99 -123 -92 -121 -90 -290 -158 -176 -71 -278 -104 -395 -128
-72 -15 -109 -16 -240 -9 -85 4 -207 8 -270 8 -149 0 -203 -19 -293 -107 -86
-83 -146 -177 -276 -436 -150 -295 -234 -419 -445 -656 -322 -360 -707 -660
-1099 -855 -821 -407 -1707 -478 -2567 -205 -730 231 -1347 669 -1813 1288
-140 185 -201 290 -290 492 -44 99 -99 210 -122 247 -50 77 -128 140 -207 168
-71 25 -214 47 -358 55 -535 30 -831 127 -1090 355 -56 49 -94 58 -133 32z
m8649 -1098 c19 -9 42 -29 51 -45 11 -18 23 -27 32 -24 11 5 151 -52 151 -61
0 -15 -26 -54 -36 -54 -8 0 -39 12 -69 27 -48 24 -57 25 -65 13 -15 -24 -13
-27 50 -62 33 -18 60 -36 60 -39 0 -4 -8 -17 -19 -30 l-18 -23 -147 83 c-80
46 -148 86 -151 90 -5 9 62 123 79 133 18 12 45 9 82 -8z m-7107 -68 c-2 -2
-71 -40 -154 -84 l-150 -80 -20 31 c-10 17 -15 32 -10 34 6 2 78 39 160 83
l150 79 14 -29 c8 -17 13 -32 10 -34z m50 -68 l20 -33 -82 -83 -82 -84 94 57
95 57 18 -24 c9 -12 18 -25 18 -28 0 -8 -284 -175 -298 -175 -7 0 -21 12 -30
27 l-17 28 80 81 80 81 -94 -57 c-51 -31 -94 -55 -96 -53 -10 13 -26 51 -22
54 4 4 283 178 294 183 0 1 10 -14 22 -31z m7011 -145 c80 -31 149 -59 154
-64 12 -11 -22 -62 -37 -56 -51 19 -57 18 -69 -7 -10 -23 -8 -29 11 -50 22
-23 22 -25 6 -50 -10 -14 -20 -26 -24 -26 -3 0 -62 56 -130 124 l-125 125 20
36 c12 24 24 33 34 30 8 -3 80 -31 160 -62z m-6862 -93 c48 -74 44 -107 -19
-164 -28 -25 -79 -60 -114 -77 -86 -42 -111 -36 -160 38 -20 31 -33 59 -28 64
19 19 269 188 278 188 6 1 25 -22 43 -49z m6728 -106 c68 -64 124 -121 124
-126 0 -5 -8 -20 -18 -33 l-18 -23 -105 54 c-114 58 -113 57 20 -57 l54 -46
-22 -31 -22 -31 -156 75 c-85 41 -157 74 -159 74 -9 0 -2 16 15 39 l18 24 109
-58 c104 -56 107 -56 69 -22 -22 20 -63 55 -92 79 -29 24 -52 46 -53 49 0 4 8
17 18 29 l19 23 106 -56 c59 -30 107 -54 107 -52 0 2 -127 110 -168 142 -13
11 -14 16 -2 38 7 14 18 25 23 25 5 0 65 -52 133 -116z m-6596 -91 c-1 -4 -64
-55 -141 -112 l-140 -104 -17 24 c-9 13 -17 27 -17 31 0 4 63 54 139 111 l140
105 18 -23 c10 -13 18 -27 18 -32z m95 -118 l27 -34 -114 -136 c-62 -74 -116
-135 -120 -135 -4 0 -15 11 -24 25 -16 25 -16 27 5 49 l21 23 -20 26 c-21 26
-22 26 -51 11 -28 -14 -31 -14 -49 8 -11 13 -19 25 -20 28 0 4 308 169 317
170 1 0 14 -16 28 -35z m6239 20 c18 -13 18 -16 2 -40 -18 -28 -27 -30 -44
-13 -9 10 -16 8 -30 -6 -16 -16 -16 -18 6 -36 23 -19 32 -18 109 10 26 9 38 9
68 -5 86 -41 99 -134 27 -192 -22 -18 -68 -16 -97 3 -30 19 -30 22 -4 53 15
18 23 21 31 13 15 -15 45 -16 53 -2 3 5 1 19 -5 31 -10 18 -18 20 -48 15 -132
-22 -135 -22 -175 23 -47 52 -49 90 -8 132 33 32 82 39 115 14z m-6101 -189
c-4 -6 -31 -46 -62 -90 -35 -50 -47 -75 -34 -68 11 6 26 18 33 27 7 8 34 33
60 55 l47 39 22 -23 22 -23 -131 -118 -131 -118 -24 23 c-14 13 -25 28 -25 33
0 5 24 44 53 86 78 112 78 112 -11 32 -80 -72 -83 -73 -102 -56 -11 10 -20 22
-20 26 0 4 57 59 128 123 l127 115 27 -26 c15 -14 24 -31 21 -37z m5934 42
l23 -22 -35 -36 -35 -36 25 -24 25 -24 33 31 32 32 24 -20 24 -20 -31 -32 -32
-33 31 -30 30 -29 34 36 33 37 22 -23 22 -24 -20 -28 c-11 -15 -36 -43 -56
-62 l-35 -34 -131 124 -131 123 58 58 c32 32 59 58 62 58 3 0 15 -10 28 -22z
m-57 -263 l124 -124 -24 -26 c-13 -14 -27 -25 -32 -25 -4 0 -43 22 -86 48 -42
27 -84 52 -92 57 -8 4 20 -28 63 -72 l78 -79 -24 -22 -23 -22 -127 128 -127
128 27 26 28 27 70 -45 c128 -82 135 -81 51 5 -79 79 -80 81 -61 101 10 11 21
20 24 20 4 0 62 -56 131 -125z m-5641 -4 l25 -19 -91 -99 c-50 -54 -107 -113
-125 -131 l-34 -32 -22 22 -21 23 117 128 c64 70 118 127 122 127 3 0 16 -9
29 -19z m111 -103 c0 -5 -23 -54 -50 -111 -28 -56 -43 -92 -33 -80 10 11 42
50 72 86 52 64 54 65 77 50 13 -8 24 -19 24 -24 0 -11 -212 -267 -222 -268 -4
-1 -19 9 -34 22 l-26 23 51 104 52 105 -38 -45 c-21 -25 -55 -63 -75 -85 l-37
-40 -21 21 -22 21 113 135 114 135 27 -20 c16 -12 28 -24 28 -29z m5330 -76
c69 -53 129 -99 134 -104 6 -4 0 -18 -14 -33 l-23 -24 -29 21 -30 21 -21 -22
c-20 -20 -21 -22 -4 -49 16 -28 16 -30 -8 -52 -15 -14 -29 -20 -34 -14 -13 15
-171 292 -171 300 0 16 53 63 64 57 6 -4 67 -49 136 -101z m-236 -69 c27 -27
42 -64 33 -85 -3 -8 5 -14 20 -14 28 -2 59 -28 79 -66 25 -48 18 -73 -33 -118
-27 -23 -55 -45 -63 -50 -11 -6 -41 27 -122 135 l-106 142 56 42 c66 48 99 52
136 14z m-4875 -19 c34 -28 40 -63 19 -109 -13 -30 -16 -30 -46 -5 -20 16 -21
22 -12 41 16 28 -2 49 -28 33 -24 -15 -26 -48 -8 -95 9 -22 16 -49 16 -61 0
-31 -39 -84 -76 -104 -27 -15 -36 -15 -62 -5 -71 30 -95 96 -54 148 17 22 17
22 41 2 20 -16 22 -23 13 -43 -13 -30 -1 -50 27 -41 29 9 35 43 16 87 -24 60
-20 93 21 138 45 49 86 54 133 14z m229 -169 c2 -2 -4 -17 -13 -35 -16 -30
-17 -31 -40 -16 -13 9 -26 16 -28 16 -2 0 -39 -52 -82 -115 -43 -63 -81 -115
-84 -115 -3 1 -16 9 -28 19 l-23 19 80 118 80 117 -23 15 c-12 9 -24 17 -26
18 -2 2 7 16 18 33 l22 30 72 -51 c40 -28 73 -52 75 -53z m4502 -6 c37 -57 72
-119 78 -136 31 -92 -85 -165 -150 -95 -25 27 -158 228 -158 239 0 9 33 32 46
33 7 0 45 -52 85 -115 71 -111 90 -132 110 -119 18 10 8 31 -66 150 l-76 119
22 18 c12 10 27 16 32 14 6 -2 40 -50 77 -108z m-4415 -57 c-10 -26 -177 -292
-184 -292 -3 0 -17 9 -30 19 l-23 18 93 151 93 150 28 -16 c16 -9 26 -22 23
-30z m4225 -104 c47 -77 87 -145 89 -150 4 -11 -28 -37 -46 -38 -6 0 -28 27
-48 60 -34 56 -37 59 -60 48 l-25 -11 27 -46 c14 -25 33 -56 40 -68 13 -20 12
-23 -17 -38 -18 -9 -33 -15 -35 -13 -7 8 -175 299 -175 303 0 3 13 11 30 20
l30 15 31 -55 c33 -60 36 -61 63 -42 17 12 16 16 -13 65 -17 29 -31 56 -31 59
0 8 33 32 45 33 6 0 49 -64 95 -142z m-4102 47 c39 -21 72 -42 72 -45 0 -3 -9
-16 -20 -30 -17 -22 -21 -24 -41 -12 -11 7 -22 12 -24 10 -2 -2 -34 -58 -72
-124 l-68 -122 -28 14 c-15 8 -27 18 -27 21 0 4 30 61 66 127 62 112 65 120
48 133 -10 7 -22 13 -26 13 -5 0 -1 14 7 31 9 16 22 29 28 27 7 -2 45 -21 85
-43z m3811 -61 c28 -20 54 -79 46 -105 -4 -12 -2 -19 7 -19 26 0 69 -56 75
-97 7 -54 -5 -72 -75 -111 l-61 -33 -67 128 c-36 70 -73 138 -80 150 -22 35
-18 41 44 72 67 35 79 37 111 15z m-3684 -6 c14 -6 25 -14 25 -18 0 -4 -27
-64 -60 -133 -58 -122 -66 -162 -32 -155 9 2 43 59 79 131 34 70 69 127 76
127 7 0 22 -6 32 -14 18 -13 17 -19 -39 -132 -68 -140 -96 -174 -143 -174 -48
0 -96 46 -95 90 1 27 117 290 128 290 2 0 15 -5 29 -12z m265 -124 l79 -36
-16 -34 c-16 -32 -17 -32 -43 -19 l-26 14 -54 -125 c-30 -69 -57 -127 -61
-130 -9 -5 -59 17 -59 26 0 4 25 62 56 131 30 68 51 125 46 127 -5 1 -17 8
-26 15 -15 11 -16 17 -5 40 7 15 16 27 21 27 5 0 44 -16 88 -36z m3121 -96 c6
-84 14 -128 33 -173 13 -33 21 -63 18 -67 -4 -4 -19 -10 -33 -13 -25 -6 -28
-3 -50 55 -17 42 -46 86 -96 143 -40 45 -73 85 -73 90 0 7 43 27 59 27 5 0 25
-24 45 -52 l37 -53 -6 50 c-4 28 -9 58 -12 68 -3 12 5 21 29 31 18 8 35 13 37
11 2 -2 7 -55 12 -117z m-2936 26 c38 -15 72 -28 74 -30 4 -4 -20 -64 -26 -64
-2 0 -20 7 -40 15 -48 20 -49 20 -62 -16 -10 -30 -10 -31 29 -46 44 -17 45
-19 30 -58 -10 -25 -10 -25 -46 -10 -47 20 -49 19 -62 -10 -18 -39 -16 -42 33
-64 43 -19 44 -20 34 -50 -6 -17 -14 -31 -18 -31 -12 0 -135 51 -144 59 -8 8
111 331 122 331 3 0 37 -12 76 -26z m2709 -45 c33 -39 33 -57 -1 -65 -21 -6
-30 -2 -41 14 -17 25 -37 29 -45 7 -7 -17 16 -98 48 -172 24 -52 50 -69 61
-38 8 21 -11 71 -26 67 -15 -4 -30 16 -30 39 0 15 74 48 85 38 5 -6 65 -173
62 -175 -1 -1 -12 -5 -24 -8 -16 -5 -23 -3 -23 6 0 7 -7 2 -16 -10 -42 -60
-107 -44 -144 35 -39 83 -60 154 -60 205 0 44 3 50 33 68 48 30 90 26 121 -11z
m-239 -61 c53 -47 104 -254 75 -308 -10 -20 -59 -40 -96 -40 -36 0 -72 48 -98
130 -35 110 -40 146 -25 181 22 56 100 75 144 37z m-2102 -16 c28 -29 25 -104
-7 -208 -36 -113 -81 -149 -149 -120 -61 25 -70 69 -38 191 20 77 54 150 73
159 27 12 100 -2 121 -22z m190 -33 c57 -12 58 -12 55 -43 -3 -31 -3 -31 -54
-28 -49 3 -52 2 -57 -25 -6 -30 5 -43 38 -43 35 -1 46 -14 39 -48 -6 -28 -9
-31 -33 -25 -61 16 -65 13 -80 -59 -12 -58 -17 -68 -35 -68 -49 1 -50 7 -12
183 20 92 36 170 36 173 0 4 10 4 23 0 12 -3 48 -11 80 -17z m1631 -6 c3 -10
15 -70 27 -133 12 -63 25 -119 29 -123 4 -5 25 -4 46 2 43 12 56 3 52 -39 -3
-21 -11 -26 -63 -37 -98 -20 -88 -31 -124 145 -18 86 -35 165 -37 174 -3 11 2
18 18 21 42 8 47 7 52 -10z m-123 -44 c26 -34 44 -125 44 -217 0 -76 -2 -86
-24 -103 -15 -12 -39 -19 -67 -19 -76 0 -100 46 -111 208 -7 104 3 135 46 151
38 15 93 5 112 -20z m-1168 -5 c27 -4 37 -11 37 -24 0 -35 -12 -50 -40 -50
l-28 0 -12 -129 c-7 -72 -16 -135 -20 -142 -5 -7 -18 -9 -35 -5 l-28 7 7 70
c21 230 22 205 -8 213 -22 5 -26 12 -26 42 l0 35 58 -6 c31 -3 74 -8 95 -11z
m941 -31 c4 -31 18 -172 29 -293 2 -21 -3 -25 -35 -31 l-37 -6 -31 86 c-40
115 -52 137 -46 91 3 -19 8 -67 12 -106 l6 -71 -27 -7 c-15 -4 -29 -5 -31 -3
-4 4 -43 350 -40 353 0 1 17 4 38 7 l36 5 38 -109 c20 -60 38 -108 40 -107 1
2 -3 47 -8 100 -12 111 -8 128 26 128 20 0 25 -6 30 -37z m-753 17 l49 0 0
-35 0 -35 -49 0 c-42 0 -49 -3 -55 -22 -11 -44 -8 -48 39 -48 45 0 45 0 45
-35 0 -35 0 -35 -44 -35 -37 0 -45 -4 -50 -22 -14 -52 -9 -58 44 -58 l50 0 0
-36 0 -37 -81 6 c-44 3 -83 8 -86 11 -7 6 17 336 24 350 3 4 19 5 35 2 17 -3
52 -6 79 -6z m252 -29 c11 -11 21 -39 24 -66 l6 -46 -34 3 c-30 3 -35 7 -39
38 -6 44 -36 54 -46 15 -13 -51 -10 -213 4 -227 11 -11 16 -10 28 6 8 11 14
32 14 48 0 26 3 28 36 28 l37 0 -7 -42 c-12 -77 -57 -116 -118 -103 -40 9 -66
48 -74 112 -8 64 10 208 28 231 31 36 106 38 141 3z m257 -23 c0 -29 3 -110 7
-180 l6 -128 -36 0 -37 0 0 75 0 75 -29 0 -30 0 6 -71 c7 -76 0 -89 -44 -89
-21 0 -23 5 -24 53 -1 28 -4 109 -7 180 l-7 127 31 0 c27 0 32 -4 38 -31 3
-17 6 -47 6 -65 0 -30 3 -34 25 -34 24 0 25 2 25 70 l0 70 35 0 35 0 0 -52z"/>
</g>
</svg>
